<svg id="Line" xmlns="http://www.w3.org/2000/svg" viewBox="0 0 64 64"><title>1</title><path d="M25.81494,56.13428c7.45189-.23664,7.45015-11.04182-.00012-11.27735C18.36305,45.09357,18.3648,55.89875,25.81494,56.13428Zm0-9.27735a3.6389,3.6389,0,0,1-.00011,7.27735A3.6389,3.6389,0,0,1,25.81494,46.85693Z" id="id_101" style="fill: rgb(103, 111, 112);"></path><path d="M25.81494,43.76465c7.45189-.23664,7.45015-11.04182-.00012-11.27735C18.36305,32.72394,18.3648,43.52912,25.81494,43.76465Zm0-9.27735a3.6389,3.6389,0,0,1-.00011,7.27735A3.6389,3.6389,0,0,1,25.81494,34.4873Z" id="id_102" style="fill: rgb(98, 108, 110);"></path><path d="M25.81494,31.39453c7.45189-.23664,7.45015-11.04182-.00012-11.27735C18.36305,20.35382,18.3648,31.159,25.81494,31.39453Zm0-9.27734a3.6389,3.6389,0,0,1-.00011,7.27734A3.6389,3.6389,0,0,1,25.81494,22.11719Z" id="id_103" style="fill: rgb(100, 110, 112);"></path><path d="M27.36133,52.269a1.00005,1.00005,0,0,0,1-1V49.72266a1,1,0,0,0-2,0V51.269A1,1,0,0,0,27.36133,52.269Z" id="id_104" style="fill: rgb(92, 100, 102);"></path><path d="M24.269,52.269a1,1,0,0,0,1-1V49.72266a1,1,0,0,0-2,0V51.269A1.00005,1.00005,0,0,0,24.269,52.269Z" id="id_105" style="fill: rgb(90, 98, 99);"></path><path d="M27.36133,39.89893a1.00006,1.00006,0,0,0,1-1V37.35254a1,1,0,0,0-2,0v1.54639A1.00005,1.00005,0,0,0,27.36133,39.89893Z" id="id_106" style="fill: rgb(88, 91, 92);"></path><path d="M24.269,39.89893a1.00005,1.00005,0,0,0,1-1V37.35254a1,1,0,0,0-2,0v1.54639A1.00006,1.00006,0,0,0,24.269,39.89893Z" id="id_107" style="fill: rgb(99, 106, 107);"></path><path d="M27.36133,27.5293a1.00006,1.00006,0,0,0,1-1V24.98291a1,1,0,0,0-2,0V26.5293A1.00005,1.00005,0,0,0,27.36133,27.5293Z" id="id_108" style="fill: rgb(97, 105, 107);"></path><path d="M24.269,27.5293a1.00005,1.00005,0,0,0,1-1V24.98291a1,1,0,0,0-2,0V26.5293A1.00006,1.00006,0,0,0,24.269,27.5293Z" id="id_109" style="fill: rgb(103, 111, 112);"></path><path d="M32.773,16.25146a1.00016,1.00016,0,0,0,.00005,2,1.32116,1.32116,0,0,1,1.31929,1.31982V56.68066A1.32077,1.32077,0,0,1,32.773,58h-13.916a1.32076,1.32076,0,0,1-1.31933-1.31934,1.00011,1.00011,0,0,0-2,0A3.32336,3.32336,0,0,0,18.85693,60H32.773a3.32337,3.32337,0,0,0,3.31934-3.31934V19.57129A3.32347,3.32347,0,0,0,32.773,16.25146Z" id="id_110" style="fill: rgb(97, 104, 105);"></path><path d="M47.4624,45.82959H42.27734V43.73682a2.09276,2.09276,0,0,1,4.18506.00008,1,1,0,0,0,2-.00008,4.08951,4.08951,0,0,0-3.09228-3.954V14.27C44.921,1.13113,26.2888.44323,24.84936,13.49479a3.645,3.645,0,0,0-1.94018,2.75667H18.85693a3.32347,3.32347,0,0,0-3.31933,3.31983V52a1,1,0,1,0,2,0V19.57129a1.32118,1.32118,0,0,1,1.31933-1.31983h8.96729a1.00005,1.00005,0,0,0,1-1,4.01218,4.01218,0,0,0-1.9762-3.72961c1.24214-10.37845,16.20849-9.75811,16.52211.74831V39.78253a4.08963,4.08963,0,0,0-3.09278,3.95429v3.09277c.03178.88261.79452,1.0717,1.5464.99994v2.09235a1,1,0,0,0,2,0V47.82959H44.916v2.09229a1.00012,1.00012,0,0,0,2-.00006V47.82959h.54638A1.00019,1.00019,0,0,0,47.4624,45.82959ZM25.81494,15.27393c.28107,0,.64465.36547.84973.97753H24.96521C25.17029,15.6394,25.53387,15.27393,25.81494,15.27393Z" id="id_111" style="fill: rgb(96, 105, 107);"></path></svg>