<?xml version="1.0" encoding="UTF-8"?>
<!DOCTYPE svg PUBLIC "-//W3C//DTD SVG 1.1//EN" "http://www.w3.org/Graphics/SVG/1.1/DTD/svg11.dtd">
<!-- Creator: CorelDRAW X7 -->
<svg xmlns="http://www.w3.org/2000/svg" xml:space="preserve" width="1.33335in" height="0.965276in" version="1.1" style="shape-rendering:geometricPrecision; text-rendering:geometricPrecision; image-rendering:optimizeQuality; fill-rule:evenodd; clip-rule:evenodd"
viewBox="0 0 1333 965"
 xmlns:xlink="http://www.w3.org/1999/xlink">
 <defs>
  <style type="text/css">
   <![CDATA[
    .fil0 {fill:black;fill-rule:nonzero}
   ]]>
  </style>
 </defs>
 <g id="Layer_x0020_1">
  <metadata id="CorelCorpID_0Corel-Layer"/>
  <path class="fil0" d="M1285 489l-76 -10c-9,-1 -18,1 -24,6 -7,5 -11,12 -13,21l-50 364c-1,8 1,17 6,23 5,7 12,12 21,13l76 10 60 -427zm-70 -56l99 14c12,2 21,13 19,26l-66 472c-1,13 -13,22 -25,20l-99 -14c-21,-3 -40,-14 -52,-30 -11,-16 -18,-36 -15,-58l51 -363c3,-22 14,-40 30,-52 16,-12 37,-18 58,-15z"/>
  <path class="fil0" d="M1097 903c-82,-6 -160,11 -242,29 -51,11 -104,22 -161,29l-1 0 0 0c-135,10 -334,-53 -483,-132 -61,-33 -114,-69 -151,-105 -41,-38 -64,-78 -58,-114 2,-14 8,-28 19,-39 3,-3 6,-5 9,-6 21,-9 63,7 123,29 75,27 182,67 298,88 -7,-6 -12,-12 -16,-19 -5,-10 -7,-20 -6,-31 9,-69 68,-86 192,-121 77,-21 182,-51 316,-104l3 -1 0 0c69,-16 117,10 160,33 21,11 40,22 58,24 13,1 22,12 21,24 0,4 -1,7 -3,10 -1,1 -1,3 -1,4l-1 0 0 1c0,1 0,2 -1,4l0 0 0 0 -50 364 0 0 0 4 0 4c1,12 -8,24 -20,25 -2,0 -3,0 -5,0l0 0zm-251 -16c77,-17 152,-34 231,-31l50 -353c-17,-6 -33,-15 -50,-24 -35,-19 -75,-40 -126,-29 -137,54 -241,84 -318,105 -105,30 -154,44 -159,82 0,2 0,3 1,4 3,5 10,10 21,15 14,6 33,10 54,13 91,10 234,-10 358,-76 9,-6 22,-4 29,5 9,10 7,24 -3,32 -252,209 -616,74 -797,7 -47,-17 -80,-30 -86,-32 -3,4 -4,8 -5,12 -3,20 14,46 44,74 34,32 84,66 142,97 142,76 331,137 457,127 55,-6 107,-17 157,-28z"/>
  <path class="fil0" d="M510 0c57,-2 110,20 148,56 38,36 63,87 65,144 2,57 -20,109 -56,147 -36,39 -87,64 -144,65 -57,2 -109,-19 -147,-55 -39,-36 -64,-87 -65,-144 -2,-57 19,-109 55,-148 36,-38 87,-63 144,-65zm117 89c-30,-28 -71,-44 -115,-43 -45,1 -84,21 -112,50 -28,30 -45,71 -44,115 2,45 21,84 51,112 30,28 71,45 115,44 44,-2 84,-21 112,-51 28,-30 45,-71 43,-115 -1,-44 -21,-84 -50,-112z"/>
  <path class="fil0" d="M584 109c10,7 13,21 5,32 -7,10 -21,13 -31,6 -5,-4 -18,-5 -31,-4 -8,0 -16,2 -23,4 -5,2 -8,4 -10,6l0 0c1,9 20,21 39,33 26,17 52,33 57,62 2,14 -2,26 -10,37 -6,8 -15,15 -25,20 -9,4 -20,7 -31,9 -26,5 -57,0 -75,-13 -10,-7 -12,-22 -4,-32 7,-10 21,-12 32,-5 7,6 24,8 40,5 7,-1 13,-3 18,-5 4,-2 7,-4 9,-6 0,-1 1,-2 0,-3 -1,-8 -18,-19 -36,-30 -28,-18 -57,-36 -59,-69 -1,-11 2,-21 8,-29l0 0c7,-10 18,-18 31,-23 11,-4 24,-6 36,-7 23,-2 46,3 60,12z"/>
  <path class="fil0" d="M487 293c0,-12 10,-23 23,-23 12,-1 23,9 23,22l1 32c1,13 -9,23 -22,24 -13,0 -23,-10 -24,-23l-1 -32z"/>
  <path class="fil0" d="M481 90c0,-13 10,-23 22,-24 13,0 23,10 24,23l1 32c0,12 -10,23 -22,23 -13,1 -24,-9 -24,-22l-1 -32z"/>
 </g>
</svg>
